<svg width="136" height="43" viewBox="0 0 136 43" fill="none" xmlns="http://www.w3.org/2000/svg">
<mask id="path-1-outside-1_108_140" maskUnits="userSpaceOnUse" x="39.9999" y="13" width="96" height="23" fill="black">
<rect fill="white" x="39.9999" y="13" width="96" height="23"/>
<path d="M41.5999 29L41.5999 14.6L44.3199 14.6L44.3199 26.46L50.5199 26.46L50.5199 29L41.5999 29ZM56.5803 29.3C55.4936 29.3 54.5403 29.0567 53.7203 28.57C52.9003 28.0833 52.2603 27.4133 51.8003 26.56C51.3469 25.7 51.1203 24.7133 51.1203 23.6C51.1203 22.4733 51.3536 21.4833 51.8203 20.63C52.2869 19.77 52.9303 19.1 53.7503 18.62C54.5703 18.14 55.5136 17.9 56.5803 17.9C57.6669 17.9 58.6203 18.1433 59.4403 18.63C60.2669 19.1167 60.9103 19.79 61.3703 20.65C61.8303 21.5033 62.0603 22.4867 62.0603 23.6C62.0603 24.72 61.8269 25.71 61.3603 26.57C60.9003 27.4233 60.2569 28.0933 59.4303 28.58C58.6103 29.06 57.6603 29.3 56.5803 29.3ZM56.5803 26.76C57.4536 26.76 58.1036 26.4667 58.5303 25.88C58.9636 25.2867 59.1803 24.5267 59.1803 23.6C59.1803 22.64 58.9603 21.8733 58.5203 21.3C58.0869 20.7267 57.4403 20.44 56.5803 20.44C55.9869 20.44 55.5003 20.5733 55.1203 20.84C54.7403 21.1067 54.4569 21.4767 54.2703 21.95C54.0903 22.4233 54.0003 22.9733 54.0003 23.6C54.0003 24.5667 54.2169 25.3367 54.6503 25.91C55.0903 26.4767 55.7336 26.76 56.5803 26.76ZM68.3793 34.1C67.766 34.1 67.1826 34 66.6293 33.8C66.076 33.6067 65.5793 33.3333 65.1393 32.98C64.706 32.6333 64.3526 32.2267 64.0793 31.76L66.5993 30.54C66.7726 30.86 67.0193 31.1033 67.3393 31.27C67.666 31.4367 68.0193 31.52 68.3993 31.52C68.806 31.52 69.1893 31.45 69.5493 31.31C69.9093 31.1767 70.196 30.9733 70.4093 30.7C70.6293 30.4333 70.7326 30.1 70.7193 29.7L70.7193 26.56L71.0593 26.56L71.0593 18.2L73.4393 18.2L73.4393 29.74C73.4393 30.0067 73.426 30.2567 73.3993 30.49C73.3793 30.73 73.3393 30.9667 73.2793 31.2C73.106 31.86 72.7826 32.4033 72.3093 32.83C71.8426 33.2567 71.2693 33.5733 70.5893 33.78C69.9093 33.9933 69.1726 34.1 68.3793 34.1ZM68.1393 29.3C67.146 29.3 66.276 29.05 65.5293 28.55C64.7826 28.05 64.1993 27.37 63.7793 26.51C63.366 25.65 63.1593 24.68 63.1593 23.6C63.1593 22.5 63.3693 21.5233 63.7893 20.67C64.216 19.81 64.8126 19.1333 65.5793 18.64C66.346 18.1467 67.246 17.9 68.2793 17.9C69.306 17.9 70.1693 18.15 70.8693 18.65C71.5693 19.15 72.0993 19.83 72.4593 20.69C72.8193 21.55 72.9993 22.52 72.9993 23.6C72.9993 24.68 72.816 25.65 72.4493 26.51C72.0893 27.37 71.5493 28.05 70.8293 28.55C70.1093 29.05 69.2126 29.3 68.1393 29.3ZM68.5793 26.88C69.186 26.88 69.6693 26.7433 70.0293 26.47C70.396 26.1967 70.6593 25.8133 70.8193 25.32C70.9793 24.8267 71.0593 24.2533 71.0593 23.6C71.0593 22.9467 70.9793 22.3733 70.8193 21.88C70.6593 21.3867 70.4026 21.0033 70.0493 20.73C69.7026 20.4567 69.246 20.32 68.6793 20.32C68.0726 20.32 67.5726 20.47 67.1793 20.77C66.7926 21.0633 66.506 21.46 66.3193 21.96C66.1326 22.4533 66.0393 23 66.0393 23.6C66.0393 24.2067 66.1293 24.76 66.3093 25.26C66.4893 25.7533 66.766 26.1467 67.1393 26.44C67.5126 26.7333 67.9926 26.88 68.5793 26.88ZM80.5998 29.3C79.5131 29.3 78.5598 29.0567 77.7398 28.57C76.9198 28.0833 76.2798 27.4133 75.8198 26.56C75.3664 25.7 75.1398 24.7133 75.1398 23.6C75.1398 22.4733 75.3731 21.4833 75.8398 20.63C76.3064 19.77 76.9498 19.1 77.7698 18.62C78.5898 18.14 79.5331 17.9 80.5998 17.9C81.6864 17.9 82.6398 18.1433 83.4598 18.63C84.2864 19.1167 84.9298 19.79 85.3898 20.65C85.8498 21.5033 86.0798 22.4867 86.0798 23.6C86.0798 24.72 85.8464 25.71 85.3798 26.57C84.9198 27.4233 84.2764 28.0933 83.4498 28.58C82.6298 29.06 81.6798 29.3 80.5998 29.3ZM80.5998 26.76C81.4731 26.76 82.1231 26.4667 82.5498 25.88C82.9831 25.2867 83.1998 24.5267 83.1998 23.6C83.1998 22.64 82.9798 21.8733 82.5398 21.3C82.1064 20.7267 81.4598 20.44 80.5998 20.44C80.0064 20.44 79.5198 20.5733 79.1398 20.84C78.7598 21.1067 78.4764 21.4767 78.2898 21.95C78.1098 22.4233 78.0198 22.9733 78.0198 23.6C78.0198 24.5667 78.2364 25.3367 78.6698 25.91C79.1098 26.4767 79.7531 26.76 80.5998 26.76ZM91.2828 29L91.2828 14.6L94.0028 14.6L94.0028 20.52L100.443 20.52L100.443 14.6L103.163 14.6L103.163 29L100.443 29L100.443 23.06L94.0028 23.06L94.0028 29L91.2828 29ZM110.49 29.3C109.384 29.3 108.407 29.0633 107.56 28.59C106.72 28.11 106.06 27.4533 105.58 26.62C105.107 25.78 104.87 24.82 104.87 23.74C104.87 22.56 105.104 21.5333 105.57 20.66C106.037 19.7867 106.68 19.11 107.5 18.63C108.32 18.1433 109.264 17.9 110.33 17.9C111.464 17.9 112.427 18.1667 113.22 18.7C114.014 19.2333 114.6 19.9833 114.98 20.95C115.36 21.9167 115.494 23.0533 115.38 24.36L112.69 24.36L112.69 23.36C112.69 22.26 112.514 21.47 112.16 20.99C111.814 20.5033 111.244 20.26 110.45 20.26C109.524 20.26 108.84 20.5433 108.4 21.11C107.967 21.67 107.75 22.5 107.75 23.6C107.75 24.6067 107.967 25.3867 108.4 25.94C108.84 26.4867 109.484 26.76 110.33 26.76C110.864 26.76 111.32 26.6433 111.7 26.41C112.08 26.1767 112.37 25.84 112.57 25.4L115.29 26.18C114.884 27.1667 114.24 27.9333 113.36 28.48C112.487 29.0267 111.53 29.3 110.49 29.3ZM106.91 24.36L106.91 22.34L114.07 22.34L114.07 24.36L106.91 24.36ZM117.138 29L117.138 18.2L119.538 18.2L119.538 20.84L119.278 20.5C119.418 20.1267 119.605 19.7867 119.838 19.48C120.072 19.1733 120.358 18.92 120.698 18.72C120.958 18.56 121.242 18.4367 121.548 18.35C121.855 18.2567 122.172 18.2 122.498 18.18C122.825 18.1533 123.152 18.16 123.478 18.2L123.478 20.74C123.178 20.6467 122.828 20.6167 122.428 20.65C122.035 20.6767 121.678 20.7667 121.358 20.92C121.038 21.0667 120.768 21.2633 120.548 21.51C120.328 21.75 120.162 22.0367 120.048 22.37C119.935 22.6967 119.878 23.0667 119.878 23.48L119.878 29L117.138 29ZM129.705 29.3C128.598 29.3 127.622 29.0633 126.775 28.59C125.935 28.11 125.275 27.4533 124.795 26.62C124.322 25.78 124.085 24.82 124.085 23.74C124.085 22.56 124.318 21.5333 124.785 20.66C125.252 19.7867 125.895 19.11 126.715 18.63C127.535 18.1433 128.478 17.9 129.545 17.9C130.678 17.9 131.642 18.1667 132.435 18.7C133.228 19.2333 133.815 19.9833 134.195 20.95C134.575 21.9167 134.708 23.0533 134.595 24.36L131.905 24.36L131.905 23.36C131.905 22.26 131.728 21.47 131.375 20.99C131.028 20.5033 130.458 20.26 129.665 20.26C128.738 20.26 128.055 20.5433 127.615 21.11C127.182 21.67 126.965 22.5 126.965 23.6C126.965 24.6067 127.182 25.3867 127.615 25.94C128.055 26.4867 128.698 26.76 129.545 26.76C130.078 26.76 130.535 26.6433 130.915 26.41C131.295 26.1767 131.585 25.84 131.785 25.4L134.505 26.18C134.098 27.1667 133.455 27.9333 132.575 28.48C131.702 29.0267 130.745 29.3 129.705 29.3ZM126.125 24.36L126.125 22.34L133.285 22.34L133.285 24.36L126.125 24.36Z"/>
</mask>
<path d="M41.5999 29L41.5999 14.6L44.3199 14.6L44.3199 26.46L50.5199 26.46L50.5199 29L41.5999 29ZM56.5803 29.3C55.4936 29.3 54.5403 29.0567 53.7203 28.57C52.9003 28.0833 52.2603 27.4133 51.8003 26.56C51.3469 25.7 51.1203 24.7133 51.1203 23.6C51.1203 22.4733 51.3536 21.4833 51.8203 20.63C52.2869 19.77 52.9303 19.1 53.7503 18.62C54.5703 18.14 55.5136 17.9 56.5803 17.9C57.6669 17.9 58.6203 18.1433 59.4403 18.63C60.2669 19.1167 60.9103 19.79 61.3703 20.65C61.8303 21.5033 62.0603 22.4867 62.0603 23.6C62.0603 24.72 61.8269 25.71 61.3603 26.57C60.9003 27.4233 60.2569 28.0933 59.4303 28.58C58.6103 29.06 57.6603 29.3 56.5803 29.3ZM56.5803 26.76C57.4536 26.76 58.1036 26.4667 58.5303 25.88C58.9636 25.2867 59.1803 24.5267 59.1803 23.6C59.1803 22.64 58.9603 21.8733 58.5203 21.3C58.0869 20.7267 57.4403 20.44 56.5803 20.44C55.9869 20.44 55.5003 20.5733 55.1203 20.84C54.7403 21.1067 54.4569 21.4767 54.2703 21.95C54.0903 22.4233 54.0003 22.9733 54.0003 23.6C54.0003 24.5667 54.2169 25.3367 54.6503 25.91C55.0903 26.4767 55.7336 26.76 56.5803 26.76ZM68.3793 34.1C67.766 34.1 67.1826 34 66.6293 33.8C66.076 33.6067 65.5793 33.3333 65.1393 32.98C64.706 32.6333 64.3526 32.2267 64.0793 31.76L66.5993 30.54C66.7726 30.86 67.0193 31.1033 67.3393 31.27C67.666 31.4367 68.0193 31.52 68.3993 31.52C68.806 31.52 69.1893 31.45 69.5493 31.31C69.9093 31.1767 70.196 30.9733 70.4093 30.7C70.6293 30.4333 70.7326 30.1 70.7193 29.7L70.7193 26.56L71.0593 26.56L71.0593 18.2L73.4393 18.2L73.4393 29.74C73.4393 30.0067 73.426 30.2567 73.3993 30.49C73.3793 30.73 73.3393 30.9667 73.2793 31.2C73.106 31.86 72.7826 32.4033 72.3093 32.83C71.8426 33.2567 71.2693 33.5733 70.5893 33.78C69.9093 33.9933 69.1726 34.1 68.3793 34.1ZM68.1393 29.3C67.146 29.3 66.276 29.05 65.5293 28.55C64.7826 28.05 64.1993 27.37 63.7793 26.51C63.366 25.65 63.1593 24.68 63.1593 23.6C63.1593 22.5 63.3693 21.5233 63.7893 20.67C64.216 19.81 64.8126 19.1333 65.5793 18.64C66.346 18.1467 67.246 17.9 68.2793 17.9C69.306 17.9 70.1693 18.15 70.8693 18.65C71.5693 19.15 72.0993 19.83 72.4593 20.69C72.8193 21.55 72.9993 22.52 72.9993 23.6C72.9993 24.68 72.816 25.65 72.4493 26.51C72.0893 27.37 71.5493 28.05 70.8293 28.55C70.1093 29.05 69.2126 29.3 68.1393 29.3ZM68.5793 26.88C69.186 26.88 69.6693 26.7433 70.0293 26.47C70.396 26.1967 70.6593 25.8133 70.8193 25.32C70.9793 24.8267 71.0593 24.2533 71.0593 23.6C71.0593 22.9467 70.9793 22.3733 70.8193 21.88C70.6593 21.3867 70.4026 21.0033 70.0493 20.73C69.7026 20.4567 69.246 20.32 68.6793 20.32C68.0726 20.32 67.5726 20.47 67.1793 20.77C66.7926 21.0633 66.506 21.46 66.3193 21.96C66.1326 22.4533 66.0393 23 66.0393 23.6C66.0393 24.2067 66.1293 24.76 66.3093 25.26C66.4893 25.7533 66.766 26.1467 67.1393 26.44C67.5126 26.7333 67.9926 26.88 68.5793 26.88ZM80.5998 29.3C79.5131 29.3 78.5598 29.0567 77.7398 28.57C76.9198 28.0833 76.2798 27.4133 75.8198 26.56C75.3664 25.7 75.1398 24.7133 75.1398 23.6C75.1398 22.4733 75.3731 21.4833 75.8398 20.63C76.3064 19.77 76.9498 19.1 77.7698 18.62C78.5898 18.14 79.5331 17.9 80.5998 17.9C81.6864 17.9 82.6398 18.1433 83.4598 18.63C84.2864 19.1167 84.9298 19.79 85.3898 20.65C85.8498 21.5033 86.0798 22.4867 86.0798 23.6C86.0798 24.72 85.8464 25.71 85.3798 26.57C84.9198 27.4233 84.2764 28.0933 83.4498 28.58C82.6298 29.06 81.6798 29.3 80.5998 29.3ZM80.5998 26.76C81.4731 26.76 82.1231 26.4667 82.5498 25.88C82.9831 25.2867 83.1998 24.5267 83.1998 23.6C83.1998 22.64 82.9798 21.8733 82.5398 21.3C82.1064 20.7267 81.4598 20.44 80.5998 20.44C80.0064 20.44 79.5198 20.5733 79.1398 20.84C78.7598 21.1067 78.4764 21.4767 78.2898 21.95C78.1098 22.4233 78.0198 22.9733 78.0198 23.6C78.0198 24.5667 78.2364 25.3367 78.6698 25.91C79.1098 26.4767 79.7531 26.76 80.5998 26.76ZM91.2828 29L91.2828 14.6L94.0028 14.6L94.0028 20.52L100.443 20.52L100.443 14.6L103.163 14.6L103.163 29L100.443 29L100.443 23.06L94.0028 23.06L94.0028 29L91.2828 29ZM110.49 29.3C109.384 29.3 108.407 29.0633 107.56 28.59C106.72 28.11 106.06 27.4533 105.58 26.62C105.107 25.78 104.87 24.82 104.87 23.74C104.87 22.56 105.104 21.5333 105.57 20.66C106.037 19.7867 106.68 19.11 107.5 18.63C108.32 18.1433 109.264 17.9 110.33 17.9C111.464 17.9 112.427 18.1667 113.22 18.7C114.014 19.2333 114.6 19.9833 114.98 20.95C115.36 21.9167 115.494 23.0533 115.38 24.36L112.69 24.36L112.69 23.36C112.69 22.26 112.514 21.47 112.16 20.99C111.814 20.5033 111.244 20.26 110.45 20.26C109.524 20.26 108.84 20.5433 108.4 21.11C107.967 21.67 107.75 22.5 107.75 23.6C107.75 24.6067 107.967 25.3867 108.4 25.94C108.84 26.4867 109.484 26.76 110.33 26.76C110.864 26.76 111.32 26.6433 111.7 26.41C112.08 26.1767 112.37 25.84 112.57 25.4L115.29 26.18C114.884 27.1667 114.24 27.9333 113.36 28.48C112.487 29.0267 111.53 29.3 110.49 29.3ZM106.91 24.36L106.91 22.34L114.07 22.34L114.07 24.36L106.91 24.36ZM117.138 29L117.138 18.2L119.538 18.2L119.538 20.84L119.278 20.5C119.418 20.1267 119.605 19.7867 119.838 19.48C120.072 19.1733 120.358 18.92 120.698 18.72C120.958 18.56 121.242 18.4367 121.548 18.35C121.855 18.2567 122.172 18.2 122.498 18.18C122.825 18.1533 123.152 18.16 123.478 18.2L123.478 20.74C123.178 20.6467 122.828 20.6167 122.428 20.65C122.035 20.6767 121.678 20.7667 121.358 20.92C121.038 21.0667 120.768 21.2633 120.548 21.51C120.328 21.75 120.162 22.0367 120.048 22.37C119.935 22.6967 119.878 23.0667 119.878 23.48L119.878 29L117.138 29ZM129.705 29.3C128.598 29.3 127.622 29.0633 126.775 28.59C125.935 28.11 125.275 27.4533 124.795 26.62C124.322 25.78 124.085 24.82 124.085 23.74C124.085 22.56 124.318 21.5333 124.785 20.66C125.252 19.7867 125.895 19.11 126.715 18.63C127.535 18.1433 128.478 17.9 129.545 17.9C130.678 17.9 131.642 18.1667 132.435 18.7C133.228 19.2333 133.815 19.9833 134.195 20.95C134.575 21.9167 134.708 23.0533 134.595 24.36L131.905 24.36L131.905 23.36C131.905 22.26 131.728 21.47 131.375 20.99C131.028 20.5033 130.458 20.26 129.665 20.26C128.738 20.26 128.055 20.5433 127.615 21.11C127.182 21.67 126.965 22.5 126.965 23.6C126.965 24.6067 127.182 25.3867 127.615 25.94C128.055 26.4867 128.698 26.76 129.545 26.76C130.078 26.76 130.535 26.6433 130.915 26.41C131.295 26.1767 131.585 25.84 131.785 25.4L134.505 26.18C134.098 27.1667 133.455 27.9333 132.575 28.48C131.702 29.0267 130.745 29.3 129.705 29.3ZM126.125 24.36L126.125 22.34L133.285 22.34L133.285 24.36L126.125 24.36Z" fill="#DEDEDE"/>
<path d="M41.5999 29L40.5999 29L40.5999 30L41.5999 30L41.5999 29ZM41.5999 14.6L41.5999 13.6L40.5999 13.6L40.5999 14.6L41.5999 14.6ZM44.3199 14.6L45.3199 14.6L45.3199 13.6L44.3199 13.6L44.3199 14.6ZM44.3199 26.46L43.3199 26.46L43.3199 27.46L44.3199 27.46L44.3199 26.46ZM50.5199 26.46L51.5199 26.46L51.5199 25.46L50.5199 25.46L50.5199 26.46ZM50.5199 29L50.5199 30L51.5199 30L51.5199 29L50.5199 29ZM42.5999 29L42.5999 14.6L40.5999 14.6L40.5999 29L42.5999 29ZM41.5999 15.6L44.3199 15.6L44.3199 13.6L41.5999 13.6L41.5999 15.6ZM43.3199 14.6L43.3199 26.46L45.3199 26.46L45.3199 14.6L43.3199 14.6ZM44.3199 27.46L50.5199 27.46L50.5199 25.46L44.3199 25.46L44.3199 27.46ZM49.5199 26.46L49.5199 29L51.5199 29L51.5199 26.46L49.5199 26.46ZM50.5199 28L41.5999 28L41.5999 30L50.5199 30L50.5199 28ZM53.7203 28.57L53.2099 29.43L53.7203 28.57ZM51.8003 26.56L50.9156 27.0263L50.92 27.0345L51.8003 26.56ZM51.8203 20.63L52.6976 21.1098L52.6992 21.1069L51.8203 20.63ZM53.7503 18.62L53.2451 17.757L53.2451 17.757L53.7503 18.62ZM59.4403 18.63L58.9299 19.49L58.9329 19.4918L59.4403 18.63ZM61.3703 20.65L60.4885 21.1217L60.49 21.1245L61.3703 20.65ZM61.3603 26.57L60.4813 26.0931L60.48 26.0955L61.3603 26.57ZM59.4303 28.58L59.9354 29.443L59.9376 29.4418L59.4303 28.58ZM58.5303 25.88L57.7227 25.2902L57.7215 25.2918L58.5303 25.88ZM58.5203 21.3L57.7225 21.903L57.7269 21.9088L58.5203 21.3ZM55.1203 20.84L55.6947 21.6586L55.1203 20.84ZM54.2703 21.95L53.3399 21.5831L53.3356 21.5946L54.2703 21.95ZM54.6503 25.91L53.8524 26.513L53.8604 26.5233L54.6503 25.91ZM56.5803 28.3C55.6476 28.3 54.8756 28.0928 54.2306 27.71L53.2099 29.43C54.2049 30.0205 55.3395 30.3 56.5803 30.3L56.5803 28.3ZM54.2306 27.71C53.5693 27.3176 53.056 26.782 52.6805 26.0855L50.92 27.0345C51.4645 28.0447 52.2312 28.8491 53.2099 29.43L54.2306 27.71ZM52.6849 26.0937C52.3177 25.3971 52.1203 24.5746 52.1203 23.6L50.1203 23.6C50.1203 24.8521 50.3762 26.0029 50.9156 27.0263L52.6849 26.0937ZM52.1203 23.6C52.1203 22.6143 52.3233 21.7942 52.6976 21.1098L50.9429 20.1502C50.3838 21.1725 50.1203 22.3324 50.1203 23.6L52.1203 23.6ZM52.6992 21.1069C53.0815 20.4023 53.5978 19.868 54.2554 19.483L53.2451 17.757C52.2627 18.332 51.4923 19.1377 50.9413 20.1531L52.6992 21.1069ZM54.2554 19.483C54.9041 19.1033 55.6689 18.9 56.5803 18.9L56.5803 16.9C55.3583 16.9 54.2365 17.1767 53.2451 17.757L54.2554 19.483ZM56.5803 18.9C57.5129 18.9 58.2849 19.1072 58.9299 19.49L59.9506 17.77C58.9556 17.1795 57.821 16.9 56.5803 16.9L56.5803 18.9ZM58.9329 19.4918C59.5986 19.8836 60.1136 20.4208 60.4885 21.1217L62.252 20.1783C61.7069 19.1592 60.9353 18.3497 59.9476 17.7682L58.9329 19.4918ZM60.49 21.1245C60.8604 21.8117 61.0603 22.6275 61.0603 23.6L63.0603 23.6C63.0603 22.3458 62.8001 21.195 62.2505 20.1755L60.49 21.1245ZM61.0603 23.6C61.0603 24.5778 60.8577 25.3995 60.4813 26.0931L62.2392 27.0469C62.7962 26.0205 63.0603 24.8622 63.0603 23.6L61.0603 23.6ZM60.48 26.0955C60.1057 26.7899 59.5905 27.3252 58.9229 27.7182L59.9376 29.4418C60.9233 28.8614 61.6948 28.0568 62.2405 27.0445L60.48 26.0955ZM58.9251 27.717C58.2783 28.0956 57.5074 28.3 56.5803 28.3L56.5803 30.3C57.8131 30.3 58.9422 30.0244 59.9354 29.443L58.9251 27.717ZM56.5803 27.76C57.6998 27.76 58.6846 27.3679 59.339 26.4682L57.7215 25.2918C57.5225 25.5654 57.2073 25.76 56.5803 25.76L56.5803 27.76ZM59.3378 26.4698C59.9256 25.665 60.1803 24.6828 60.1803 23.6L58.1803 23.6C58.1803 24.3705 58.0016 24.9083 57.7227 25.2902L59.3378 26.4698ZM60.1803 23.6C60.1803 22.4919 59.9257 21.4888 59.3136 20.6912L57.7269 21.9088C57.9948 22.2578 58.1803 22.7881 58.1803 23.6L60.1803 23.6ZM59.318 20.697C58.6575 19.8231 57.6844 19.44 56.5803 19.44L56.5803 21.44C57.1961 21.44 57.5163 21.6302 57.7225 21.903L59.318 20.697ZM56.5803 19.44C55.8385 19.44 55.1355 19.6076 54.5458 20.0214L55.6947 21.6586C55.865 21.539 56.1353 21.44 56.5803 21.44L56.5803 19.44ZM54.5458 20.0214C53.9902 20.4113 53.5913 20.9459 53.34 21.5831L55.2005 22.3169C55.3225 22.0075 55.4903 21.802 55.6947 21.6586L54.5458 20.0214ZM53.3356 21.5946C53.1035 22.2048 53.0003 22.8797 53.0003 23.6L55.0003 23.6C55.0003 23.067 55.077 22.6419 55.2049 22.3054L53.3356 21.5946ZM53.0003 23.6C53.0003 24.7099 53.2492 25.7148 53.8525 26.513L55.448 25.307C55.1846 24.9586 55.0003 24.4234 55.0003 23.6L53.0003 23.6ZM53.8604 26.5233C54.5251 27.3794 55.4872 27.76 56.5803 27.76L56.5803 25.76C55.98 25.76 55.6554 25.574 55.4401 25.2967L53.8604 26.5233ZM66.6293 33.8L66.9693 32.8595L66.9592 32.856L66.6293 33.8ZM65.1393 32.98L65.7654 32.2003L65.764 32.1991L65.1393 32.98ZM64.0793 31.76L63.6436 30.8599L62.6694 31.3315L63.2164 32.2654L64.0793 31.76ZM66.5993 30.54L67.4786 30.0637L67.0235 29.2236L66.1636 29.6399L66.5993 30.54ZM67.3393 31.27L66.8774 32.1569L66.8848 32.1608L67.3393 31.27ZM69.5493 31.31L69.202 30.3723L69.1944 30.3751L69.1869 30.378L69.5493 31.31ZM70.4093 30.7L69.6379 30.0636L69.6293 30.0741L69.621 30.0847L70.4093 30.7ZM70.7193 29.7L69.7193 29.7L69.7193 29.7167L69.7199 29.7333L70.7193 29.7ZM70.7193 26.56L70.7193 25.56L69.7193 25.56L69.7193 26.56L70.7193 26.56ZM71.0593 26.56L71.0593 27.56L72.0593 27.56L72.0593 26.56L71.0593 26.56ZM71.0593 18.2L71.0593 17.2L70.0593 17.2L70.0593 18.2L71.0593 18.2ZM73.4393 18.2L74.4393 18.2L74.4393 17.2L73.4393 17.2L73.4393 18.2ZM73.3993 30.49L72.4058 30.3765L72.404 30.3917L72.4028 30.407L73.3993 30.49ZM73.2793 31.2L74.2465 31.454L74.2478 31.449L73.2793 31.2ZM72.3093 32.83L71.6398 32.0872L71.6345 32.092L72.3093 32.83ZM70.5893 33.78L70.2985 32.8232L70.29 32.8259L70.5893 33.78ZM65.5293 28.55L64.9729 29.3809L65.5293 28.55ZM63.7793 26.51L62.878 26.9432L62.8807 26.9488L63.7793 26.51ZM63.7893 20.67L62.8935 20.2256L62.8921 20.2284L63.7893 20.67ZM65.5793 18.64L66.1204 19.4809L65.5793 18.64ZM70.8693 18.65L71.4506 17.8363L70.8693 18.65ZM72.4593 20.69L71.5369 21.0761L72.4593 20.69ZM72.4493 26.51L71.5294 26.1178L71.5269 26.1239L72.4493 26.51ZM70.8293 28.55L71.3997 29.3714L70.8293 28.55ZM70.0293 26.47L69.4316 25.6682L69.4246 25.6736L70.0293 26.47ZM70.8193 25.32L69.8681 25.0115L69.8681 25.0115L70.8193 25.32ZM70.8193 21.88L69.8681 22.1885L69.8681 22.1885L70.8193 21.88ZM70.0493 20.73L69.4301 21.5153L69.4374 21.521L70.0493 20.73ZM67.1793 20.77L67.7837 21.5667L67.7858 21.5651L67.1793 20.77ZM66.3193 21.96L67.2546 22.3139L67.2562 22.3098L66.3193 21.96ZM66.3093 25.26L65.3684 25.5987L65.3699 25.6028L66.3093 25.26ZM67.1393 26.44L66.5215 27.2263L67.1393 26.44ZM68.3793 33.1C67.8769 33.1 67.409 33.0185 66.9692 32.8595L66.2894 34.7405C66.9563 34.9815 67.6551 35.1 68.3793 35.1L68.3793 33.1ZM66.9592 32.856C66.509 32.6987 66.1133 32.4797 65.7654 32.2003L64.5132 33.7597C65.0453 34.187 65.6429 34.5147 66.2995 34.744L66.9592 32.856ZM65.764 32.1991C65.4237 31.9269 65.152 31.6129 64.9422 31.2546L63.2164 32.2654C63.5533 32.8405 63.9882 33.3398 64.5146 33.7609L65.764 32.1991ZM64.5151 32.6601L67.0351 31.4401L66.1636 29.6399L63.6436 30.8599L64.5151 32.6601ZM65.72 31.0163C65.9875 31.5101 66.3788 31.8972 66.8774 32.1569L67.8012 30.3831C67.6599 30.3094 67.5578 30.2099 67.4786 30.0637L65.72 31.0163ZM66.8848 32.1608C67.3574 32.4019 67.8672 32.52 68.3993 32.52L68.3993 30.52C68.1714 30.52 67.9745 30.4715 67.7938 30.3792L66.8848 32.1608ZM68.3993 32.52C68.9233 32.52 69.4302 32.4293 69.9118 32.242L69.1869 30.378C68.9484 30.4707 68.6886 30.52 68.3993 30.52L68.3993 32.52ZM69.8966 32.2477C70.4115 32.0571 70.8581 31.7503 71.1976 31.3153L69.621 30.0847C69.5339 30.1963 69.4072 30.2963 69.202 30.3723L69.8966 32.2477ZM71.1807 31.3364C71.5799 30.8525 71.7389 30.2694 71.7188 29.6667L69.7199 29.7333C69.7264 29.9306 69.6787 30.0142 69.6379 30.0636L71.1807 31.3364ZM71.7193 29.7L71.7193 26.56L69.7193 26.56L69.7193 29.7L71.7193 29.7ZM70.7193 27.56L71.0593 27.56L71.0593 25.56L70.7193 25.56L70.7193 27.56ZM72.0593 26.56L72.0593 18.2L70.0593 18.2L70.0593 26.56L72.0593 26.56ZM71.0593 19.2L73.4393 19.2L73.4393 17.2L71.0593 17.2L71.0593 19.2ZM72.4393 18.2L72.4393 29.74L74.4393 29.74L74.4393 18.2L72.4393 18.2ZM72.4393 29.74C72.4393 29.9737 72.4276 30.1855 72.4058 30.3765L74.3928 30.6035C74.4244 30.3279 74.4393 30.0396 74.4393 29.74L72.4393 29.74ZM72.4028 30.407C72.3874 30.5909 72.3568 30.772 72.3108 30.951L74.2478 31.449C74.3218 31.1613 74.3712 30.8691 74.3959 30.573L72.4028 30.407ZM72.3121 30.946C72.1846 31.4315 71.958 31.8004 71.6398 32.0872L72.9789 33.5728C73.6073 33.0063 74.0274 32.2885 74.2465 31.454L72.3121 30.946ZM71.6345 32.092C71.2909 32.4062 70.8536 32.6545 70.2985 32.8232L70.8801 34.7368C71.685 34.4922 72.3944 34.1072 72.9841 33.568L71.6345 32.092ZM70.29 32.8259C69.7171 33.0056 69.0825 33.1 68.3793 33.1L68.3793 35.1C69.2628 35.1 70.1015 34.9811 70.8887 34.7341L70.29 32.8259ZM68.1393 28.3C67.3224 28.3 66.6506 28.0974 66.0857 27.7191L64.9729 29.3809C65.9014 30.0026 66.9696 30.3 68.1393 30.3L68.1393 28.3ZM66.0857 27.7191C65.4953 27.3237 65.0257 26.7833 64.6779 26.0712L62.8807 26.9488C63.373 27.9567 64.07 28.7763 64.9729 29.3809L66.0857 27.7191ZM64.6806 26.0768C64.3403 25.3688 64.1593 24.5499 64.1593 23.6L62.1593 23.6C62.1593 24.8101 62.3916 25.9312 62.878 26.9432L64.6806 26.0768ZM64.1593 23.6C64.1593 22.6292 64.344 21.8075 64.6865 21.1116L62.8921 20.2284C62.3946 21.2391 62.1593 22.3708 62.1593 23.6L64.1593 23.6ZM64.6851 21.1144C65.036 20.4073 65.5138 19.8713 66.1204 19.4809L65.0382 17.7991C64.1115 18.3954 63.396 19.2127 62.8935 20.2256L64.6851 21.1144ZM66.1204 19.4809C66.7049 19.1048 67.4115 18.9 68.2793 18.9L68.2793 16.9C67.0804 16.9 65.987 17.1885 65.0382 17.7991L66.1204 19.4809ZM68.2793 18.9C69.1389 18.9 69.7884 19.1069 70.2881 19.4637L71.4506 17.8363C70.5502 17.1931 69.4731 16.9 68.2793 16.9L68.2793 18.9ZM70.2881 19.4637C70.8242 19.8467 71.2424 20.3727 71.5369 21.0761L73.3818 20.3039C72.9562 19.2873 72.3145 18.4533 71.4506 17.8363L70.2881 19.4637ZM71.5369 21.0761C71.8382 21.796 71.9993 22.6318 71.9993 23.6L73.9993 23.6C73.9993 22.4082 73.8004 21.304 73.3818 20.3039L71.5369 21.0761ZM71.9993 23.6C71.9993 24.5659 71.8357 25.3996 71.5294 26.1178L73.3692 26.9022C73.7963 25.9005 73.9993 24.7941 73.9993 23.6L71.9993 23.6ZM71.5269 26.1239C71.2355 26.8199 70.8124 27.3442 70.2589 27.7286L71.3997 29.3714C72.2862 28.7558 72.9431 27.9201 73.3718 26.8961L71.5269 26.1239ZM70.2589 27.7286C69.7408 28.0884 69.0551 28.3 68.1393 28.3L68.1393 30.3C69.3702 30.3 70.4778 30.0116 71.3997 29.3714L70.2589 27.7286ZM68.5793 27.88C69.3302 27.88 70.0491 27.7106 70.634 27.2664L69.4246 25.6736C69.2896 25.7761 69.0417 25.88 68.5793 25.88L68.5793 27.88ZM70.627 27.2717C71.1815 26.8584 71.5555 26.2915 71.7705 25.6285L69.8681 25.0115C69.7631 25.3352 69.6105 25.5349 69.4316 25.6683L70.627 27.2717ZM71.7705 25.6285C71.97 25.0135 72.0593 24.3322 72.0593 23.6L70.0593 23.6C70.0593 24.1745 69.9886 24.6398 69.8681 25.0115L71.7705 25.6285ZM72.0593 23.6C72.0593 22.8678 71.97 22.1865 71.7705 21.5715L69.8681 22.1885C69.9886 22.5602 70.0593 23.0255 70.0593 23.6L72.0593 23.6ZM71.7705 21.5715C71.5588 20.9185 71.198 20.3543 70.6612 19.939L69.4374 21.521C69.6073 21.6524 69.7599 21.8548 69.8681 22.1885L71.7705 21.5715ZM70.6685 19.9447C70.1007 19.497 69.4061 19.32 68.6793 19.32L68.6793 21.32C69.0858 21.32 69.3046 21.4163 69.4302 21.5153L70.6685 19.9447ZM68.6793 19.32C67.9043 19.32 67.1769 19.5142 66.5729 19.9749L67.7858 21.5651C67.9684 21.4258 68.241 21.32 68.6793 21.32L68.6793 19.32ZM66.5749 19.9733C66.0225 20.3924 65.6285 20.9511 65.3825 21.6102L67.2562 22.3098C67.3834 21.9689 67.5628 21.7343 67.7837 21.5667L66.5749 19.9733ZM65.384 21.6061C65.1491 22.227 65.0393 22.8956 65.0393 23.6L67.0393 23.6C67.0393 23.1044 67.1162 22.6797 67.2546 22.3139L65.384 21.6061ZM65.0393 23.6C65.0393 24.306 65.1442 24.9759 65.3684 25.5987L67.2502 24.9213C67.1144 24.5441 67.0393 24.1073 67.0393 23.6L65.0393 23.6ZM65.3699 25.6028C65.6067 26.2519 65.9865 26.806 66.5215 27.2263L67.7571 25.6537C67.5454 25.4874 67.3719 25.2548 67.2487 24.9172L65.3699 25.6028ZM66.5215 27.2263C67.1093 27.6882 67.8227 27.88 68.5793 27.88L68.5793 25.88C68.1626 25.88 67.916 25.7785 67.7571 25.6537L66.5215 27.2263ZM77.7398 28.57L77.2294 29.43L77.7398 28.57ZM75.8198 26.56L74.9351 27.0263L74.9395 27.0345L75.8198 26.56ZM75.8398 20.63L76.7172 21.1098L76.7187 21.1069L75.8398 20.63ZM77.7698 18.62L77.2646 17.757L77.2646 17.757L77.7698 18.62ZM83.4598 18.63L82.9494 19.49L82.9525 19.4918L83.4598 18.63ZM85.3898 20.65L84.508 21.1217L84.5095 21.1245L85.3898 20.65ZM85.3798 26.57L84.5008 26.0931L84.4995 26.0955L85.3798 26.57ZM83.4498 28.58L83.955 29.443L83.9571 29.4418L83.4498 28.58ZM82.5498 25.88L81.7422 25.2902L81.741 25.2918L82.5498 25.88ZM82.5398 21.3L81.742 21.903L81.7465 21.9088L82.5398 21.3ZM79.1398 20.84L79.7142 21.6586L79.1398 20.84ZM78.2898 21.95L77.3594 21.5831L77.3551 21.5946L78.2898 21.95ZM78.6698 25.91L77.8719 26.513L77.8799 26.5233L78.6698 25.91ZM80.5998 28.3C79.6672 28.3 78.8951 28.0928 78.2502 27.71L77.2294 29.43C78.2245 30.0205 79.3591 30.3 80.5998 30.3L80.5998 28.3ZM78.2502 27.71C77.5888 27.3176 77.0755 26.782 76.7 26.0855L74.9395 27.0345C75.4841 28.0447 76.2507 28.8491 77.2294 29.43L78.2502 27.71ZM76.7044 26.0937C76.3372 25.3971 76.1398 24.5746 76.1398 23.6L74.1398 23.6C74.1398 24.8521 74.3957 26.0029 74.9352 27.0263L76.7044 26.0937ZM76.1398 23.6C76.1398 22.6143 76.3429 21.7942 76.7172 21.1098L74.9624 20.1502C74.4034 21.1725 74.1398 22.3324 74.1398 23.6L76.1398 23.6ZM76.7187 21.1069C77.1011 20.4023 77.6173 19.868 78.275 19.483L77.2646 17.757C76.2823 18.332 75.5118 19.1377 74.9608 20.1531L76.7187 21.1069ZM78.275 19.483C78.9236 19.1033 79.6884 18.9 80.5998 18.9L80.5998 16.9C79.3778 16.9 78.256 17.1767 77.2646 17.757L78.275 19.483ZM80.5998 18.9C81.5324 18.9 82.3045 19.1072 82.9494 19.49L83.9702 17.77C82.9751 17.1795 81.8405 16.9 80.5998 16.9L80.5998 18.9ZM82.9525 19.4918C83.6181 19.8836 84.1331 20.4208 84.508 21.1217L86.2716 20.1783C85.7265 19.1592 84.9548 18.3497 83.9671 17.7682L82.9525 19.4918ZM84.5095 21.1245C84.8799 21.8117 85.0798 22.6275 85.0798 23.6L87.0798 23.6C87.0798 22.3458 86.8196 21.195 86.27 20.1755L84.5095 21.1245ZM85.0798 23.6C85.0798 24.5778 84.8772 25.3995 84.5008 26.0931L86.2587 27.0469C86.8157 26.0205 87.0798 24.8622 87.0798 23.6L85.0798 23.6ZM84.4995 26.0955C84.1252 26.7899 83.6101 27.3252 82.9425 27.7182L83.9571 29.4418C84.9428 28.8614 85.7144 28.0568 86.26 27.0445L84.4995 26.0955ZM82.9446 27.717C82.2979 28.0956 81.5269 28.3 80.5998 28.3L80.5998 30.3C81.8326 30.3 82.9617 30.0244 83.955 29.443L82.9446 27.717ZM80.5998 27.76C81.7194 27.76 82.7042 27.3679 83.3585 26.4682L81.741 25.2918C81.5421 25.5654 81.2269 25.76 80.5998 25.76L80.5998 27.76ZM83.3573 26.4698C83.9451 25.665 84.1998 24.6828 84.1998 23.6L82.1998 23.6C82.1998 24.3705 82.0211 24.9083 81.7422 25.2902L83.3573 26.4698ZM84.1998 23.6C84.1998 22.4919 83.9452 21.4888 83.3331 20.6912L81.7465 21.9088C82.0143 22.2578 82.1998 22.7881 82.1998 23.6L84.1998 23.6ZM83.3376 20.697C82.677 19.8231 81.704 19.44 80.5998 19.44L80.5998 21.44C81.2156 21.44 81.5359 21.6302 81.742 21.903L83.3376 20.697ZM80.5998 19.44C79.858 19.44 79.155 19.6076 78.5654 20.0214L79.7142 21.6586C79.8845 21.539 80.1549 21.44 80.5998 21.44L80.5998 19.44ZM78.5654 20.0214C78.0098 20.4113 77.6108 20.9459 77.3595 21.5831L79.2201 22.3169C79.3421 22.0075 79.5098 21.802 79.7142 21.6586L78.5654 20.0214ZM77.3551 21.5946C77.123 22.2048 77.0198 22.8797 77.0198 23.6L79.0198 23.6C79.0198 23.067 79.0965 22.6419 79.2245 22.3054L77.3551 21.5946ZM77.0198 23.6C77.0198 24.7099 77.2687 25.7148 77.872 26.513L79.4676 25.307C79.2042 24.9586 79.0198 24.4234 79.0198 23.6L77.0198 23.6ZM77.8799 26.5233C78.5446 27.3794 79.5067 27.76 80.5998 27.76L80.5998 25.76C79.9995 25.76 79.6749 25.574 79.4596 25.2967L77.8799 26.5233ZM91.2828 29L90.2828 29L90.2828 30L91.2828 30L91.2828 29ZM91.2828 14.6L91.2828 13.6L90.2828 13.6L90.2828 14.6L91.2828 14.6ZM94.0028 14.6L95.0028 14.6L95.0028 13.6L94.0028 13.6L94.0028 14.6ZM94.0028 20.52L93.0028 20.52L93.0028 21.52L94.0028 21.52L94.0028 20.52ZM100.443 20.52L100.443 21.52L101.443 21.52L101.443 20.52L100.443 20.52ZM100.443 14.6L100.443 13.6L99.4428 13.6L99.4428 14.6L100.443 14.6ZM103.163 14.6L104.163 14.6L104.163 13.6L103.163 13.6L103.163 14.6ZM103.163 29L103.163 30L104.163 30L104.163 29L103.163 29ZM100.443 29L99.4428 29L99.4428 30L100.443 30L100.443 29ZM100.443 23.06L101.443 23.06L101.443 22.06L100.443 22.06L100.443 23.06ZM94.0028 23.06L94.0028 22.06L93.0028 22.06L93.0028 23.06L94.0028 23.06ZM94.0027 29L94.0027 30L95.0027 30L95.0027 29L94.0027 29ZM92.2828 29L92.2828 14.6L90.2828 14.6L90.2828 29L92.2828 29ZM91.2828 15.6L94.0028 15.6L94.0028 13.6L91.2828 13.6L91.2828 15.6ZM93.0028 14.6L93.0028 20.52L95.0028 20.52L95.0028 14.6L93.0028 14.6ZM94.0028 21.52L100.443 21.52L100.443 19.52L94.0028 19.52L94.0028 21.52ZM101.443 20.52L101.443 14.6L99.4428 14.6L99.4428 20.52L101.443 20.52ZM100.443 15.6L103.163 15.6L103.163 13.6L100.443 13.6L100.443 15.6ZM102.163 14.6L102.163 29L104.163 29L104.163 14.6L102.163 14.6ZM103.163 28L100.443 28L100.443 30L103.163 30L103.163 28ZM101.443 29L101.443 23.06L99.4428 23.06L99.4428 29L101.443 29ZM100.443 22.06L94.0028 22.06L94.0028 24.06L100.443 24.06L100.443 22.06ZM93.0028 23.06L93.0027 29L95.0027 29L95.0028 23.06L93.0028 23.06ZM94.0027 28L91.2828 28L91.2828 30L94.0027 30L94.0027 28ZM107.56 28.59L107.064 29.4583L107.072 29.4629L107.56 28.59ZM105.58 26.62L104.709 27.1109L104.714 27.1191L105.58 26.62ZM105.57 20.66L104.688 20.1887L104.688 20.1887L105.57 20.66ZM107.5 18.63L108.005 19.493L108.011 19.49L107.5 18.63ZM113.22 18.7L113.778 17.8701L113.22 18.7ZM114.98 20.95L115.911 20.5842L115.911 20.5842L114.98 20.95ZM115.38 24.36L115.38 25.36L116.297 25.36L116.377 24.4464L115.38 24.36ZM112.69 24.36L111.69 24.36L111.69 25.36L112.69 25.36L112.69 24.36ZM112.16 20.99L111.346 21.5702L111.35 21.5765L111.355 21.5828L112.16 20.99ZM108.4 21.11L107.61 20.4967L107.609 20.498L108.4 21.11ZM108.4 25.94L107.613 26.5566L107.621 26.567L108.4 25.94ZM111.7 26.41L111.177 25.5578L111.7 26.41ZM112.57 25.4L112.846 24.4387L112.017 24.201L111.66 24.9862L112.57 25.4ZM115.29 26.18L116.215 26.5611L116.641 25.527L115.566 25.2187L115.29 26.18ZM113.36 28.48L112.833 27.6306L112.83 27.6324L113.36 28.48ZM106.91 24.36L105.91 24.36L105.91 25.36L106.91 25.36L106.91 24.36ZM106.91 22.34L106.91 21.34L105.91 21.34L105.91 22.34L106.91 22.34ZM114.07 22.34L115.07 22.34L115.07 21.34L114.07 21.34L114.07 22.34ZM114.07 24.36L114.07 25.36L115.07 25.36L115.07 24.36L114.07 24.36ZM110.49 28.3C109.53 28.3 108.726 28.096 108.048 27.7171L107.072 29.4629C108.088 30.0307 109.237 30.3 110.49 30.3L110.49 28.3ZM108.056 27.7218C107.369 27.3292 106.838 26.7995 106.447 26.1209L104.714 27.1191C105.283 28.1071 106.071 28.8908 107.064 29.4582L108.056 27.7218ZM106.451 26.1291C106.072 25.4563 105.87 24.6691 105.87 23.74L103.87 23.74C103.87 24.9709 104.142 26.1037 104.709 27.1109L106.451 26.1291ZM105.87 23.74C105.87 22.693 106.077 21.8342 106.452 21.1313L104.688 20.1887C104.131 21.2324 103.87 22.427 103.87 23.74L105.87 23.74ZM106.452 21.1313C106.836 20.4136 107.352 19.8757 108.005 19.493L106.995 17.767C106.009 18.3443 105.238 19.1597 104.688 20.1887L106.452 21.1313ZM108.011 19.49C108.658 19.1055 109.421 18.9 110.33 18.9L110.33 16.9C109.106 16.9 107.982 17.1812 106.99 17.7701L108.011 19.49ZM110.33 18.9C111.302 18.9 112.063 19.1267 112.662 19.5299L113.778 17.8701C112.791 17.2066 111.625 16.9 110.33 16.9L110.33 18.9ZM112.662 19.5299C113.273 19.9401 113.737 20.521 114.05 21.3159L115.911 20.5842C115.463 19.4457 114.755 18.5266 113.778 17.8701L112.662 19.5299ZM114.05 21.3159C114.36 22.1061 114.487 23.0814 114.384 24.2736L116.377 24.4464C116.5 23.0253 116.36 21.7272 115.911 20.5842L114.05 21.3159ZM115.38 23.36L112.69 23.36L112.69 25.36L115.38 25.36L115.38 23.36ZM113.69 24.36L113.69 23.36L111.69 23.36L111.69 24.36L113.69 24.36ZM113.69 23.36C113.69 22.2032 113.514 21.1425 112.966 20.3972L111.355 21.5828C111.513 21.7975 111.69 22.3168 111.69 23.36L113.69 23.36ZM112.975 20.4098C112.382 19.5775 111.451 19.26 110.45 19.26L110.45 21.26C111.036 21.26 111.245 21.4291 111.346 21.5702L112.975 20.4098ZM110.45 19.26C109.313 19.26 108.293 19.6178 107.61 20.4967L109.19 21.7233C109.388 21.4689 109.734 21.26 110.45 21.26L110.45 19.26ZM107.609 20.498C106.984 21.3066 106.75 22.3938 106.75 23.6L108.75 23.6C108.75 22.6062 108.95 22.0334 109.191 21.722L107.609 20.498ZM106.75 23.6C106.75 24.7362 106.993 25.7653 107.613 26.5566L109.188 25.3234C108.941 25.008 108.75 24.4771 108.75 23.6L106.75 23.6ZM107.621 26.567C108.291 27.3987 109.25 27.76 110.33 27.76L110.33 25.76C109.717 25.76 109.39 25.5747 109.179 25.313L107.621 26.567ZM110.33 27.76C111.012 27.76 111.658 27.6096 112.224 27.2622L111.177 25.5578C110.983 25.677 110.715 25.76 110.33 25.76L110.33 27.76ZM112.224 27.2622C112.788 26.9158 113.205 26.4193 113.481 25.8138L111.66 24.9862C111.535 25.2607 111.373 25.4376 111.177 25.5578L112.224 27.2622ZM112.295 26.3613L115.015 27.1413L115.566 25.2187L112.846 24.4387L112.295 26.3613ZM114.366 25.7989C114.036 26.598 113.529 27.1981 112.833 27.6306L113.888 29.3294C114.952 28.6686 115.731 27.7354 116.215 26.5611L114.366 25.7989ZM112.83 27.6324C112.117 28.0785 111.344 28.3 110.49 28.3L110.49 30.3C111.716 30.3 112.857 29.9749 113.891 29.3276L112.83 27.6324ZM107.91 24.36L107.91 22.34L105.91 22.34L105.91 24.36L107.91 24.36ZM106.91 23.34L114.07 23.34L114.07 21.34L106.91 21.34L106.91 23.34ZM113.07 22.34L113.07 24.36L115.07 24.36L115.07 22.34L113.07 22.34ZM114.07 23.36L106.91 23.36L106.91 25.36L114.07 25.36L114.07 23.36ZM117.138 29L116.138 29L116.138 30L117.138 30L117.138 29ZM117.138 18.2L117.138 17.2L116.138 17.2L116.138 18.2L117.138 18.2ZM119.538 18.2L120.538 18.2L120.538 17.2L119.538 17.2L119.538 18.2ZM119.538 20.84L118.744 21.4475L120.538 23.7939L120.538 20.84L119.538 20.84ZM119.278 20.5L118.342 20.1489L118.147 20.6675L118.484 21.1075L119.278 20.5ZM120.698 18.72L121.205 19.5819L121.214 19.5769L121.222 19.5717L120.698 18.72ZM121.548 18.35L121.82 19.3123L121.83 19.3096L121.839 19.3067L121.548 18.35ZM122.498 18.18L122.559 19.1781L122.569 19.1775L122.58 19.1767L122.498 18.18ZM123.478 18.2L124.478 18.2L124.478 17.315L123.6 17.2074L123.478 18.2ZM123.478 20.74L123.181 21.6949L124.478 22.0984L124.478 20.74L123.478 20.74ZM122.428 20.65L122.496 21.6477L122.504 21.6472L122.511 21.6465L122.428 20.65ZM121.358 20.92L121.775 21.8291L121.783 21.8255L121.79 21.8218L121.358 20.92ZM120.548 21.51L121.285 22.1858L121.295 22.1756L120.548 21.51ZM120.048 22.37L120.993 22.6978L120.995 22.6919L120.048 22.37ZM119.878 29L119.878 30L120.878 30L120.878 29L119.878 29ZM118.138 29L118.138 18.2L116.138 18.2L116.138 29L118.138 29ZM117.138 19.2L119.538 19.2L119.538 17.2L117.138 17.2L117.138 19.2ZM118.538 18.2L118.538 20.84L120.538 20.84L120.538 18.2L118.538 18.2ZM120.333 20.2326L120.073 19.8926L118.484 21.1075L118.744 21.4475L120.333 20.2326ZM120.215 20.8511C120.322 20.5658 120.462 20.312 120.634 20.0855L119.042 18.8745C118.748 19.2613 118.515 19.6875 118.342 20.1489L120.215 20.8511ZM120.634 20.0855C120.787 19.8848 120.975 19.7176 121.205 19.5819L120.191 17.8581C119.742 18.1224 119.356 18.4619 119.042 18.8745L120.634 20.0855ZM121.222 19.5717C121.4 19.4621 121.598 19.375 121.82 19.3123L121.276 17.3877C120.885 17.4983 120.516 17.6579 120.174 17.8683L121.222 19.5717ZM121.839 19.3067C122.07 19.2366 122.309 19.1935 122.559 19.1781L122.437 17.1819C122.034 17.2065 121.64 17.2768 121.257 17.3933L121.839 19.3067ZM122.58 19.1767C122.838 19.1556 123.097 19.1608 123.357 19.1926L123.6 17.2074C123.206 17.1592 122.811 17.1511 122.417 17.1833L122.58 19.1767ZM122.478 18.2L122.478 20.74L124.478 20.74L124.478 18.2L122.478 18.2ZM123.775 19.7851C123.324 19.6446 122.839 19.6123 122.345 19.6535L122.511 21.6465C122.817 21.6211 123.033 21.6487 123.181 21.6949L123.775 19.7851ZM122.361 19.6523C121.855 19.6866 121.372 19.8043 120.926 20.0182L121.79 21.8218C121.984 21.729 122.215 21.6668 122.496 21.6477L122.361 19.6523ZM120.942 20.0109C120.504 20.2113 120.12 20.4881 119.802 20.8444L121.295 22.1756C121.417 22.0386 121.572 21.922 121.775 21.8291L120.942 20.0109ZM119.811 20.8343C119.49 21.1845 119.256 21.5944 119.101 22.0481L120.995 22.6919C121.067 22.479 121.166 22.3155 121.285 22.1857L119.811 20.8343ZM119.103 22.0422C118.947 22.4926 118.878 22.9763 118.878 23.48L120.878 23.48C120.878 23.1571 120.923 22.9007 120.993 22.6978L119.103 22.0422ZM118.878 23.48L118.878 29L120.878 29L120.878 23.48L118.878 23.48ZM119.878 28L117.138 28L117.138 30L119.878 30L119.878 28ZM126.775 28.59L126.279 29.4583L126.287 29.4629L126.775 28.59ZM124.795 26.62L123.924 27.1109L123.929 27.1191L124.795 26.62ZM124.785 20.66L123.903 20.1887L123.903 20.1887L124.785 20.66ZM126.715 18.63L127.22 19.493L127.225 19.49L126.715 18.63ZM132.435 18.7L132.993 17.8701L132.435 18.7ZM134.195 20.95L135.126 20.5842L135.126 20.5842L134.195 20.95ZM134.595 24.36L134.595 25.36L135.512 25.36L135.591 24.4464L134.595 24.36ZM131.905 24.36L130.905 24.36L130.905 25.36L131.905 25.36L131.905 24.36ZM131.375 20.99L130.561 21.5702L130.565 21.5765L130.57 21.5828L131.375 20.99ZM127.615 21.11L126.825 20.4967L126.824 20.498L127.615 21.11ZM127.615 25.94L126.828 26.5566L126.836 26.567L127.615 25.94ZM130.915 26.41L130.392 25.5578L130.915 26.41ZM131.785 25.4L132.061 24.4387L131.232 24.201L130.875 24.9862L131.785 25.4ZM134.505 26.18L135.43 26.5611L135.856 25.527L134.781 25.2187L134.505 26.18ZM132.575 28.48L132.047 27.6306L132.045 27.6324L132.575 28.48ZM126.125 24.36L125.125 24.36L125.125 25.36L126.125 25.36L126.125 24.36ZM126.125 22.34L126.125 21.34L125.125 21.34L125.125 22.34L126.125 22.34ZM133.285 22.34L134.285 22.34L134.285 21.34L133.285 21.34L133.285 22.34ZM133.285 24.36L133.285 25.36L134.285 25.36L134.285 24.36L133.285 24.36ZM129.705 28.3C128.745 28.3 127.941 28.096 127.263 27.7171L126.287 29.4629C127.303 30.0307 128.452 30.3 129.705 30.3L129.705 28.3ZM127.271 27.7218C126.584 27.3292 126.053 26.7995 125.662 26.1209L123.929 27.1191C124.498 28.1071 125.286 28.8908 126.279 29.4582L127.271 27.7218ZM125.666 26.1291C125.287 25.4563 125.085 24.6691 125.085 23.74L123.085 23.74C123.085 24.9709 123.356 26.1037 123.924 27.1109L125.666 26.1291ZM125.085 23.74C125.085 22.693 125.291 21.8342 125.667 21.1313L123.903 20.1887C123.345 21.2324 123.085 22.427 123.085 23.74L125.085 23.74ZM125.667 21.1313C126.051 20.4136 126.567 19.8757 127.22 19.493L126.21 17.767C125.224 18.3443 124.453 19.1597 123.903 20.1887L125.667 21.1313ZM127.225 19.49C127.873 19.1055 128.636 18.9 129.545 18.9L129.545 16.9C128.321 16.9 127.197 17.1812 126.205 17.7701L127.225 19.49ZM129.545 18.9C130.517 18.9 131.277 19.1267 131.877 19.5299L132.993 17.8701C132.006 17.2066 130.84 16.9 129.545 16.9L129.545 18.9ZM131.877 19.5299C132.487 19.9401 132.952 20.521 133.264 21.3159L135.126 20.5842C134.678 19.4457 133.969 18.5266 132.993 17.8701L131.877 19.5299ZM133.264 21.3159C133.575 22.1061 133.702 23.0814 133.599 24.2736L135.591 24.4464C135.715 23.0253 135.575 21.7272 135.126 20.5842L133.264 21.3159ZM134.595 23.36L131.905 23.36L131.905 25.36L134.595 25.36L134.595 23.36ZM132.905 24.36L132.905 23.36L130.905 23.36L130.905 24.36L132.905 24.36ZM132.905 23.36C132.905 22.2032 132.729 21.1425 132.18 20.3972L130.57 21.5828C130.728 21.7975 130.905 22.3168 130.905 23.36L132.905 23.36ZM132.19 20.4098C131.597 19.5775 130.666 19.26 129.665 19.26L129.665 21.26C130.251 21.26 130.46 21.4291 130.561 21.5702L132.19 20.4098ZM129.665 19.26C128.528 19.26 127.508 19.6178 126.825 20.4967L128.405 21.7233C128.602 21.4689 128.949 21.26 129.665 21.26L129.665 19.26ZM126.824 20.498C126.199 21.3066 125.965 22.3938 125.965 23.6L127.965 23.6C127.965 22.6062 128.165 22.0334 128.406 21.722L126.824 20.498ZM125.965 23.6C125.965 24.7362 126.208 25.7653 126.828 26.5566L128.402 25.3234C128.155 25.008 127.965 24.4771 127.965 23.6L125.965 23.6ZM126.836 26.567C127.505 27.3987 128.465 27.76 129.545 27.76L129.545 25.76C128.932 25.76 128.605 25.5747 128.394 25.313L126.836 26.567ZM129.545 27.76C130.227 27.76 130.873 27.6096 131.438 27.2622L130.392 25.5578C130.198 25.677 129.93 25.76 129.545 25.76L129.545 27.76ZM131.438 27.2622C132.003 26.9158 132.42 26.4193 132.695 25.8138L130.875 24.9862C130.75 25.2607 130.588 25.4376 130.392 25.5578L131.438 27.2622ZM131.509 26.3613L134.229 27.1413L134.781 25.2187L132.061 24.4387L131.509 26.3613ZM133.581 25.7989C133.251 26.598 132.744 27.1981 132.047 27.6306L133.103 29.3294C134.167 28.6686 134.946 27.7354 135.43 26.5611L133.581 25.7989ZM132.045 27.6324C131.332 28.0785 130.559 28.3 129.705 28.3L129.705 30.3C130.931 30.3 132.072 29.9749 133.106 29.3276L132.045 27.6324ZM127.125 24.36L127.125 22.34L125.125 22.34L125.125 24.36L127.125 24.36ZM126.125 23.34L133.285 23.34L133.285 21.34L126.125 21.34L126.125 23.34ZM132.285 22.34L132.285 24.36L134.285 24.36L134.285 22.34L132.285 22.34ZM133.285 23.36L126.125 23.36L126.125 25.36L133.285 25.36L133.285 23.36Z" fill="black" mask="url(#path-1-outside-1_108_140)"/>
<mask id="path-3-outside-2_108_140" maskUnits="userSpaceOnUse" x="-2" y="16" width="27" height="27" fill="black">
<rect fill="white" x="-2" y="16" width="27" height="27"/>
<path d="M11.3938 35.4538L17.7277 17.2308H22.6108L14.0123 42H8.81077L0.212308 17.2308H5.09538L11.3938 35.4538Z"/>
</mask>
<path d="M11.3938 35.4538L17.7277 17.2308H22.6108L14.0123 42H8.81077L0.212308 17.2308H5.09538L11.3938 35.4538Z" fill="#DEDEDE"/>
<path d="M11.3938 35.4538L10.4487 35.7805L11.3912 38.5074L12.3384 35.7822L11.3938 35.4538ZM17.7277 17.2308V16.2308H17.0166L16.7831 16.9025L17.7277 17.2308ZM22.6108 17.2308L23.5555 17.5587L24.0165 16.2308H22.6108V17.2308ZM14.0123 42V43H14.7237L14.957 42.3279L14.0123 42ZM8.81077 42L7.86607 42.3279L8.09937 43H8.81077V42ZM0.212308 17.2308V16.2308H-1.19338L-0.732389 17.5587L0.212308 17.2308ZM5.09538 17.2308L6.04052 16.9041L5.8078 16.2308H5.09538V17.2308ZM12.3384 35.7822L18.6723 17.5591L16.7831 16.9025L10.4493 35.1255L12.3384 35.7822ZM17.7277 18.2308H22.6108V16.2308H17.7277V18.2308ZM21.6661 16.9028L13.0676 41.6721L14.957 42.3279L23.5555 17.5587L21.6661 16.9028ZM14.0123 41H8.81077V43H14.0123V41ZM9.75547 41.6721L1.157 16.9028L-0.732389 17.5587L7.86607 42.3279L9.75547 41.6721ZM0.212308 18.2308H5.09538V16.2308H0.212308V18.2308ZM4.15025 17.5574L10.4487 35.7805L12.339 35.1272L6.04052 16.9041L4.15025 17.5574Z" fill="black" mask="url(#path-3-outside-2_108_140)"/>
<mask id="path-5-outside-3_108_140" maskUnits="userSpaceOnUse" x="3.99994" y="-0.153811" width="27" height="27" fill="black">
<rect fill="white" x="3.99994" y="-0.153811" width="27" height="27"/>
<path d="M17.6061 7.39234L11.2722 25.6154L6.38917 25.6154L14.9876 0.84619L20.1892 0.846191L28.7876 25.6154L23.9046 25.6154L17.6061 7.39234Z"/>
</mask>
<path d="M17.6061 7.39234L11.2722 25.6154L6.38917 25.6154L14.9876 0.84619L20.1892 0.846191L28.7876 25.6154L23.9046 25.6154L17.6061 7.39234Z" fill="#DEDEDE"/>
<path d="M17.6061 7.39234L18.5512 7.06567L17.6087 4.3388L16.6615 7.06404L17.6061 7.39234ZM11.2722 25.6154L11.2722 26.6154L11.9834 26.6154L12.2168 25.9437L11.2722 25.6154ZM6.38917 25.6154L5.44448 25.2875L4.98349 26.6154L6.38917 26.6154L6.38917 25.6154ZM14.9876 0.84619L14.9876 -0.15381L14.2762 -0.15381L14.0429 0.518244L14.9876 0.84619ZM20.1892 0.846191L21.1339 0.518245L20.9006 -0.153809L20.1892 -0.153809L20.1892 0.846191ZM28.7876 25.6154L28.7876 26.6154L30.1933 26.6154L29.7323 25.2875L28.7876 25.6154ZM23.9046 25.6154L22.9594 25.9421L23.1921 26.6154L23.9046 26.6154L23.9046 25.6154ZM16.6615 7.06404L10.3277 25.2871L12.2168 25.9437L18.5507 7.72065L16.6615 7.06404ZM11.2722 24.6154L6.38917 24.6154L6.38917 26.6154L11.2722 26.6154L11.2722 24.6154ZM7.33387 25.9434L15.9323 1.17414L14.0429 0.518244L5.44448 25.2875L7.33387 25.9434ZM14.9876 1.84619L20.1892 1.84619L20.1892 -0.153809L14.9876 -0.15381L14.9876 1.84619ZM19.2445 1.17414L27.8429 25.9434L29.7323 25.2875L21.1339 0.518245L19.2445 1.17414ZM28.7876 24.6154L23.9046 24.6154L23.9046 26.6154L28.7876 26.6154L28.7876 24.6154ZM24.8497 25.2887L18.5512 7.06567L16.661 7.71901L22.9594 25.9421L24.8497 25.2887Z" fill="black" mask="url(#path-5-outside-3_108_140)"/>
<g clip-path="url(#clip0_108_140)">
<path d="M20.3938 36.4537L26.7277 18.2307H31.6108L23.0123 42.9999H17.8107L9.21228 18.2307H14.0954L20.3938 36.4537Z" fill="#DEDEDE"/>
<path d="M26.6061 8.39234L20.2722 26.6154H15.3892L23.9876 1.84619L29.1892 1.84619L37.7876 26.6154H32.9046L26.6061 8.39234Z" fill="#DEDEDE"/>
</g>
<defs>
<clipPath id="clip0_108_140">
<rect width="29" height="42" fill="white" transform="translate(9 1)"/>
</clipPath>
</defs>
</svg>
